<svg xmlns="http://www.w3.org/2000/svg" viewBox="0 0 64 64">
  <!-- Fondo -->
  <rect width="64" height="64" rx="14" fill="#0B1220"/>

  <!-- Lupa -->
  <circle
    cx="28"
    cy="28"
    r="16"
    fill="none"
    stroke="#38BDF8"
    stroke-width="4"
  />

  <line
    x1="40"
    y1="40"
    x2="52"
    y2="52"
    stroke="#38BDF8"
    stroke-width="4"
    stroke-linecap="round"
  />

  <!-- Huella dactilar (minimal, centrada) -->
  <path d="M28 18
           c-6 0-10 4-10 10
           c0 4 2 6 2 10"
        fill="none"
        stroke="#0EA5E9"
        stroke-width="2.2"
        stroke-linecap="round"/>

  <path d="M28 21
           c-4 0-7 3-7 7
           c0 3 1.5 5 1.5 8"
        fill="none"
        stroke="#0EA5E9"
        stroke-width="2"
        stroke-linecap="round"/>

  <path d="M28 24
           c-2 0-4 2-4 4
           c0 2 1 4 1 6"
        fill="none"
        stroke="#0EA5E9"
        stroke-width="1.8"
        stroke-linecap="round"/>

  <path d="M28 21
           c4 0 7 3 7 7
           c0 3-1.5 5-1.5 8"
        fill="none"
        stroke="#0EA5E9"
        stroke-width="2"
        stroke-linecap="round"/>

  <path d="M28 18
           c6 0 10 4 10 10
           c0 4-2 6-2 10"
        fill="none"
        stroke="#0EA5E9"
        stroke-width="2.2"
        stroke-linecap="round"/>
</svg>

